<svg id="b57bf66d-d5b3-4d49-beae-84763c04f619" data-name="Layer 1" xmlns="http://www.w3.org/2000/svg" width="116.35" height="40" viewBox="0 0 116.35 40"><title>fin icon-with-text-dark</title><path d="M37,11.29v5.78h-1V11.29h-.83v-.74h.83V9.32a2.48,2.48,0,0,1,.1-.68,1.55,1.55,0,0,1,.32-.56A1.43,1.43,0,0,1,37,7.7a1.64,1.64,0,0,1,.73-.14h.69v.82h-.52a.82.82,0,0,0-.67.26,1,1,0,0,0-.21.7v1.21h1.4v.74Z" fill="#001d38"/><path d="M40,8.65V7.57h1.08V8.65Zm0,8.42V10.51h1v6.56Z" fill="#001d38"/><path d="M47.62,17.07V13a1.77,1.77,0,0,0-.44-1.31,1.82,1.82,0,0,0-2.36,0,1.76,1.76,0,0,0-.44,1.3v4h-1V10.51h1v.72a2.38,2.38,0,0,1,.81-.6,2.66,2.66,0,0,1,1-.2,2.27,2.27,0,0,1,1.68.62,2.43,2.43,0,0,1,.67,1.82v4.2Z" fill="#001d38"/><path d="M54.62,17.07v-.63a2.23,2.23,0,0,1-.82.55,3.18,3.18,0,0,1-1.07.16A3.8,3.8,0,0,1,51.62,17a1.82,1.82,0,0,1-.74-.46,1.65,1.65,0,0,1-.37-.6,2.24,2.24,0,0,1-.12-.73A1.73,1.73,0,0,1,51,13.84a2.4,2.4,0,0,1,1.68-.52h2V12.7a1.4,1.4,0,0,0-.39-1.08,1.84,1.84,0,0,0-1.29-.36,2.47,2.47,0,0,0-1,.17,1.67,1.67,0,0,0-.65.58l-.65-.6a2.22,2.22,0,0,1,1-.78,3.94,3.94,0,0,1,1.34-.2,3,3,0,0,1,2,.56,2,2,0,0,1,.65,1.63v4.45Zm0-3H52.78c-1,0-1.46.39-1.46,1.16a1,1,0,0,0,.36.85,1.91,1.91,0,0,0,1.14.27,4,4,0,0,0,.8-.07,1.22,1.22,0,0,0,.67-.37,1.54,1.54,0,0,0,.33-1.13Z" fill="#001d38"/><path d="M62.1,17.07V13a1.77,1.77,0,0,0-.43-1.31,1.59,1.59,0,0,0-1.18-.43,1.57,1.57,0,0,0-1.18.44,1.76,1.76,0,0,0-.44,1.3v4h-1V10.51h1v.72a2.38,2.38,0,0,1,.81-.6,2.63,2.63,0,0,1,1-.2,2.23,2.23,0,0,1,1.67.62,2.4,2.4,0,0,1,.68,1.82v4.2Z" fill="#001d38"/><path d="M69.1,16.93a2.89,2.89,0,0,1-1.16.22,3.06,3.06,0,0,1-1.15-.21,2.44,2.44,0,0,1-.92-.63,2.87,2.87,0,0,1-.62-1A4.64,4.64,0,0,1,65,13.79a4.53,4.53,0,0,1,.22-1.46,2.87,2.87,0,0,1,.62-1.05,2.44,2.44,0,0,1,.92-.63,3.06,3.06,0,0,1,1.15-.22,2.89,2.89,0,0,1,1.16.22,3,3,0,0,1,1,.76l-.66.61a2.25,2.25,0,0,0-.7-.57,1.78,1.78,0,0,0-.8-.16,2.05,2.05,0,0,0-.87.18,1.74,1.74,0,0,0-.65.56,2.31,2.31,0,0,0-.33.73,5.35,5.35,0,0,0,0,2.06,2.31,2.31,0,0,0,.33.73,1.74,1.74,0,0,0,.65.56,2.05,2.05,0,0,0,.87.18,1.78,1.78,0,0,0,.8-.16,2.64,2.64,0,0,0,.7-.58l.66.62A3,3,0,0,1,69.1,16.93Z" fill="#001d38"/><path d="M72.32,14a2.49,2.49,0,0,0,.49,1.66,1.75,1.75,0,0,0,1.44.59,2.21,2.21,0,0,0,1-.18,3,3,0,0,0,.77-.56l.65.57a4.78,4.78,0,0,1-.5.44,2.2,2.2,0,0,1-.53.32,2.65,2.65,0,0,1-.62.2,4.16,4.16,0,0,1-.75.07A3.4,3.4,0,0,1,73,17a2.24,2.24,0,0,1-.89-.62,2.69,2.69,0,0,1-.58-1,4.76,4.76,0,0,1-.21-1.5,3.82,3.82,0,0,1,.72-2.48,2.68,2.68,0,0,1,4,0,3.5,3.5,0,0,1,.71,2.31V14ZM75.75,13a2,2,0,0,0,0-.27,1.55,1.55,0,0,0,0-.23,1.52,1.52,0,0,0-.09-.25,1.5,1.5,0,0,0-.6-.72,1.79,1.79,0,0,0-1.86,0,1.5,1.5,0,0,0-.6.72,3.2,3.2,0,0,0-.15.48c0,.14,0,.35-.05.61h3.46C75.77,13.19,75.76,13.08,75.75,13Z" fill="#001d38"/><path d="M44.29,30.38v-4A1.76,1.76,0,0,0,43.85,25a1.57,1.57,0,0,0-1.17-.44A1.63,1.63,0,0,0,41.5,25,1.55,1.55,0,0,0,41,26.24v4.14h-1v-4A1.79,1.79,0,0,0,39.65,25a1.59,1.59,0,0,0-1.18-.44,1.62,1.62,0,0,0-1.19.44,1.76,1.76,0,0,0-.45,1.31v4h-1V23.83h1v.72a2.1,2.1,0,0,1,.82-.6,2.66,2.66,0,0,1,1-.2,2.52,2.52,0,0,1,1.19.27,2,2,0,0,1,.82.82,2.5,2.5,0,0,1,2.16-1.09,2.69,2.69,0,0,1,1,.16,2.25,2.25,0,0,1,.73.45,2.43,2.43,0,0,1,.71,1.83v4.19Z" fill="#001d38"/><path d="M51.29,30.38v-.62a2.28,2.28,0,0,1-.82.55,3.2,3.2,0,0,1-1.07.15,3.49,3.49,0,0,1-1.11-.14,1.63,1.63,0,0,1-.74-.46,1.61,1.61,0,0,1-.37-.59,2.25,2.25,0,0,1-.12-.74,1.73,1.73,0,0,1,.58-1.38,2.45,2.45,0,0,1,1.68-.51h2V26a1.39,1.39,0,0,0-.38-1.07,1.89,1.89,0,0,0-1.3-.36,2.4,2.4,0,0,0-1,.16,1.78,1.78,0,0,0-.66.58l-.65-.6a2.2,2.2,0,0,1,1-.77,4,4,0,0,1,1.34-.2,3,3,0,0,1,2,.55,2,2,0,0,1,.65,1.63v4.45Zm0-3H49.45c-1,0-1.46.39-1.46,1.16a1,1,0,0,0,.36.84,1.84,1.84,0,0,0,1.14.28,5,5,0,0,0,.8-.07A1.25,1.25,0,0,0,51,29.2a1.57,1.57,0,0,0,.33-1.14Z" fill="#001d38"/><path d="M58.78,30.38v-4A1.76,1.76,0,0,0,58.34,25,1.8,1.8,0,0,0,56,25a1.8,1.8,0,0,0-.44,1.31v4h-1V23.83h1v.72a2.14,2.14,0,0,1,.81-.6,2.63,2.63,0,0,1,1-.2,2.27,2.27,0,0,1,1.68.61,2.47,2.47,0,0,1,.67,1.83v4.19Z" fill="#001d38"/><path d="M65.78,30.38v-.62a2.36,2.36,0,0,1-.82.55,3.24,3.24,0,0,1-1.07.15,3.49,3.49,0,0,1-1.11-.14,1.63,1.63,0,0,1-.74-.46,1.61,1.61,0,0,1-.37-.59,2.25,2.25,0,0,1-.12-.74,1.73,1.73,0,0,1,.58-1.38,2.45,2.45,0,0,1,1.68-.51h2V26a1.36,1.36,0,0,0-.39-1.07,1.84,1.84,0,0,0-1.29-.36,2.49,2.49,0,0,0-1,.16,1.75,1.75,0,0,0-.65.58l-.65-.6a2.2,2.2,0,0,1,1-.77,3.94,3.94,0,0,1,1.34-.2,3,3,0,0,1,2,.55,2,2,0,0,1,.65,1.63v4.45Zm0-3H63.94c-1,0-1.46.39-1.46,1.16a1,1,0,0,0,.36.84,1.84,1.84,0,0,0,1.14.28,4.74,4.74,0,0,0,.79-.07,1.28,1.28,0,0,0,.68-.37,1.57,1.57,0,0,0,.33-1.14Z" fill="#001d38"/><path d="M73.72,31.71a2.71,2.71,0,0,1-.54.88,2.31,2.31,0,0,1-.86.59,3,3,0,0,1-1.15.21,3.28,3.28,0,0,1-.66,0,2.56,2.56,0,0,1-.56-.15,2.76,2.76,0,0,1-.5-.28,3.61,3.61,0,0,1-.5-.41l.62-.61c.12.1.23.2.34.28a3.12,3.12,0,0,0,.35.2,1.63,1.63,0,0,0,.39.13,2.53,2.53,0,0,0,.5,0,1.88,1.88,0,0,0,.82-.16,1.68,1.68,0,0,0,.55-.42,1.57,1.57,0,0,0,.32-.63,2.78,2.78,0,0,0,.1-.78v-1a2,2,0,0,1-.85.67,2.84,2.84,0,0,1-1,.17,2.47,2.47,0,0,1-.92-.16,2,2,0,0,1-.67-.43,2.33,2.33,0,0,1-.64-1.21,7.3,7.3,0,0,1,0-3,2.37,2.37,0,0,1,.64-1.21,2.18,2.18,0,0,1,.68-.42,2.69,2.69,0,0,1,.92-.15,2.86,2.86,0,0,1,1,.17,2,2,0,0,1,.85.68v-.77h.94v6.75A3.39,3.39,0,0,1,73.72,31.71Zm-.83-5.55a2.36,2.36,0,0,0-.23-.79,1.3,1.3,0,0,0-.49-.55,1.45,1.45,0,0,0-.85-.22,1.48,1.48,0,0,0-.86.22,1.39,1.39,0,0,0-.5.55,2.61,2.61,0,0,0-.23.79c0,.3,0,.6,0,.9a9.08,9.08,0,0,0,0,.91,2.63,2.63,0,0,0,.23.78,1.39,1.39,0,0,0,.5.55,1.48,1.48,0,0,0,.86.22,1.45,1.45,0,0,0,.85-.22,1.3,1.3,0,0,0,.49-.55,2.37,2.37,0,0,0,.23-.78,8.22,8.22,0,0,0,0-1.81Z" fill="#001d38"/><path d="M76.9,27.36A2.51,2.51,0,0,0,77.39,29a1.78,1.78,0,0,0,1.44.59,2.21,2.21,0,0,0,1-.18,2.73,2.73,0,0,0,.77-.57l.65.58a4.93,4.93,0,0,1-.5.44,2.8,2.8,0,0,1-.52.32,3,3,0,0,1-.62.19,3.57,3.57,0,0,1-.76.07,3.13,3.13,0,0,1-1.17-.2,2.18,2.18,0,0,1-.9-.61,2.73,2.73,0,0,1-.58-1,4.74,4.74,0,0,1-.21-1.49,3.82,3.82,0,0,1,.72-2.48,2.69,2.69,0,0,1,4,0,3.48,3.48,0,0,1,.71,2.32v.44Zm3.44-1.07a2,2,0,0,0,0-.26,2,2,0,0,0,0-.24,1.86,1.86,0,0,0-.09-.24,1.5,1.5,0,0,0-.6-.72,1.74,1.74,0,0,0-1.86,0,1.5,1.5,0,0,0-.6.72A3.2,3.2,0,0,0,77,26a5.92,5.92,0,0,0,0,.61h3.46C80.35,26.51,80.34,26.39,80.34,26.29Z" fill="#001d38"/><path d="M91.77,30.38v-4A1.75,1.75,0,0,0,91.34,25a1.59,1.59,0,0,0-1.18-.44A1.65,1.65,0,0,0,89,25a1.59,1.59,0,0,0-.46,1.21v4.14h-1v-4A1.76,1.76,0,0,0,87.13,25,1.58,1.58,0,0,0,86,24.6a1.65,1.65,0,0,0-1.19.44,1.8,1.8,0,0,0-.44,1.31v4h-1V23.83h1v.72a2.1,2.1,0,0,1,.82-.6,2.66,2.66,0,0,1,1-.2,2.52,2.52,0,0,1,1.19.27,2.15,2.15,0,0,1,.82.82,2.48,2.48,0,0,1,2.16-1.09,2.59,2.59,0,0,1,1,.16,2.29,2.29,0,0,1,.74.45,2.43,2.43,0,0,1,.7,1.83v4.19Z" fill="#001d38"/><path d="M95.66,27.36A2.57,2.57,0,0,0,96.15,29a1.78,1.78,0,0,0,1.44.59,2.28,2.28,0,0,0,1-.18,2.84,2.84,0,0,0,.76-.57l.65.58a4,4,0,0,1-.5.44,2.48,2.48,0,0,1-1.14.51,3.54,3.54,0,0,1-.75.07,3.14,3.14,0,0,1-1.18-.2,2.32,2.32,0,0,1-.9-.61,2.87,2.87,0,0,1-.58-1,4.74,4.74,0,0,1-.21-1.49,3.82,3.82,0,0,1,.72-2.48,2.7,2.7,0,0,1,4,0,3.53,3.53,0,0,1,.7,2.32v.44Zm3.44-1.07a2,2,0,0,0,0-.26,2,2,0,0,0,0-.24l-.08-.24a1.62,1.62,0,0,0-.6-.72,1.75,1.75,0,0,0-1.87,0,1.62,1.62,0,0,0-.6.72,2.26,2.26,0,0,0-.14.48,3.75,3.75,0,0,0-.06.61h3.46A3.49,3.49,0,0,0,99.1,26.29Z" fill="#001d38"/><path d="M106.32,30.38v-4a1.76,1.76,0,0,0-.44-1.31,1.8,1.8,0,0,0-2.36,0,1.8,1.8,0,0,0-.44,1.31v4h-1V23.83h1v.72a2.14,2.14,0,0,1,.81-.6,2.63,2.63,0,0,1,1-.2,2.27,2.27,0,0,1,1.68.61,2.47,2.47,0,0,1,.67,1.83v4.19Z" fill="#001d38"/><path d="M111.44,30.38a1.72,1.72,0,0,1-.74-.14,1.43,1.43,0,0,1-.52-.38,1.69,1.69,0,0,1-.31-.56,2.15,2.15,0,0,1-.11-.68v-4h-.82v-.73h.82V21.82h1v2.05h1.4v.73h-1.4v4a1,1,0,0,0,.22.7.82.82,0,0,0,.67.26h.51v.82Z" fill="#001d38"/><path d="M20.57,20.24s0,0,0-.07v-3.4a8.92,8.92,0,0,0-.67-3.55,5.46,5.46,0,0,0-2-2.51,6,6,0,0,0-3.37-.89,5.85,5.85,0,0,0-2.22.44,5.93,5.93,0,0,0-1.82,1.2.09.09,0,0,1-.15-.07V3.91a.08.08,0,0,0-.07-.08H4.58s-.07,0-.07,0V29.14a.08.08,0,0,0,.07.08h5.63a.09.09,0,0,0,.07-.08V17.55a2.26,2.26,0,0,1,.7-1.9,2.34,2.34,0,0,1,3,0,2.3,2.3,0,0,1,.7,1.94V25a.1.1,0,0,0,.15.08Z" fill="#061932"/><path d="M22.16,15.16a1.48,1.48,0,0,0-.07-.37,10,10,0,0,0-1.26-3.37,1.39,1.39,0,0,0-.15-.22.07.07,0,0,1,0-.11,10.13,10.13,0,0,1,1.59-.86,6.21,6.21,0,0,1,2.52-.45,7.42,7.42,0,0,1,2.59.45,5.8,5.8,0,0,1,2,1.27,4.8,4.8,0,0,1,1.08,1.68,12.71,12.71,0,0,1,.52,2c.11.71.14,1.46.18,2.2s0,1.5,0,2.21,0,1.46,0,2.2A14.54,14.54,0,0,1,31.05,24a12.71,12.71,0,0,1-.52,2,4.45,4.45,0,0,1-1.08,1.68,5.4,5.4,0,0,1-2,1.27,7.42,7.42,0,0,1-2.59.45A6.9,6.9,0,0,1,22.38,29a4.44,4.44,0,0,1-1.66-1.09c-.08,0-.15,0-.15.08v7.33a.08.08,0,0,1-.07.07H14.87a.08.08,0,0,1-.07-.07V27.42s0,0,0-.07l5.81-4.86a.09.09,0,0,1,.15,0L21,23a1.88,1.88,0,0,0,.74.94,2.39,2.39,0,0,0,1.33.3,2.28,2.28,0,0,0,1.3-.34,2.2,2.2,0,0,0,.74-.9,6.92,6.92,0,0,0,.33-1.42c0-.56.07-1.19.07-1.87s0-1.3-.07-1.87a4,4,0,0,0-.33-1.42,1.62,1.62,0,0,0-.74-.89,2.2,2.2,0,0,0-1.3-.34,1.79,1.79,0,0,0-.7.15C22.24,15.27,22.16,15.24,22.16,15.16Z" fill="#e02043"/></svg>